<svg id="Layer_1" data-name="Layer 1" xmlns="http://www.w3.org/2000/svg" viewBox="0 0 892.23 163.44"><defs><style>.cls-1{fill:#0665c7;}</style></defs><path class="cls-1" d="M119.38,219.09q-11.59,4.42-20.67,4.11-17.1-.94-27-17.72a44.52,44.52,0,0,1-5.81-23.21V62.1h15V118h27.53v12.76H81v48.95q-.63,18.15,12.24,28,10.55,5,21.52-.95Q117.59,214.66,119.38,219.09Z" transform="translate(-65.89 -59.78)"/><path class="cls-1" d="M197.77,101.66q26.68,0,44.31,19.31A60.61,60.61,0,0,1,258,162.85q0,24.17-16.88,42.26T197.77,223.2q-26.58,0-43.41-18.09t-16.83-42.26a60.44,60.44,0,0,1,15.93-41.77Q171.09,101.66,197.77,101.66Zm0,14.56q-18.47,0-31.76,13.72a45.85,45.85,0,0,0-13.29,33.12,47.53,47.53,0,0,0,6.07,23.48,42.49,42.49,0,0,0,16.4,16.77,46.74,46.74,0,0,0,45.32,0,42.32,42.32,0,0,0,16.3-16.77,48,48,0,0,0,6-23.48,45.85,45.85,0,0,0-13.29-33.12Q216.23,116.23,197.77,116.22Z" transform="translate(-65.89 -59.78)"/><path class="cls-1" d="M285.23,62.63h15V154l53.49-46.63h21.94l-48.42,44,52.12,71.75h-21.1l-45.58-62.25-12.45,10.23v52h-15Z" transform="translate(-65.89 -59.78)"/><path class="cls-1" d="M492,182l12.45,6.65q-6,12.12-14.14,19.51a57,57,0,0,1-18.25,11.24,64,64,0,0,1-22.89,3.85q-28.28,0-44.21-18.52T389,162.85a61.76,61.76,0,0,1,13.51-39.24q17.08-21.94,45.89-22,29.43,0,47.16,22.47,12.56,15.83,12.66,39.46H404.34q.42,20.26,12.87,33.18a40.93,40.93,0,0,0,30.7,12.93,48.69,48.69,0,0,0,17.2-3.12,46.26,46.26,0,0,0,14.19-8.17Q485.15,193.34,492,182Zm0-31.12q-3-11.93-8.65-19.05a41.34,41.34,0,0,0-15.09-11.5,46.24,46.24,0,0,0-19.73-4.37,42.26,42.26,0,0,0-29.22,11q-8.86,8-13.4,24Z" transform="translate(-65.89 -59.78)"/><path class="cls-1" d="M535.9,179.21l-.21-12.35a78.3,78.3,0,0,1,.74-15.4q2.31-19.94,10.13-29.22a64.89,64.89,0,0,1,15.5-12.56q13.08-5.59,29.86-5.27A46.7,46.7,0,0,1,616.13,111,37.34,37.34,0,0,1,632,128.72q4.75,11.15,4.75,34.87V223.1H622V167.92q0-20-1.69-26.8-2.64-11.49-10.44-16.3T586.75,120a39.35,39.35,0,0,0-24,7.81q-10.56,7.8-9.81,21.31-2,8.66-2,31.54V223.1h-15Z" transform="translate(-65.89 -59.78)"/><path class="cls-1" d="M673.68,59.78a12,12,0,0,1,8.71,3.59A11.72,11.72,0,0,1,686,72a12.43,12.43,0,0,1-12.35,12.34A11.7,11.7,0,0,1,665,80.72a12,12,0,0,1-3.58-8.7,12.24,12.24,0,0,1,12.23-12.24Zm-7.38,47.58h14.87V223.1H666.3Z" transform="translate(-65.89 -59.78)"/><path class="cls-1" d="M711.87,179.21l-.21-12.35a79.08,79.08,0,0,1,.74-15.4q2.33-19.94,10.13-29.22A64.73,64.73,0,0,1,738,109.68q13.08-5.59,29.86-5.27A46.7,46.7,0,0,1,792.11,111,37.39,37.39,0,0,1,808,128.72q4.74,11.15,4.74,34.87V223.1H798V167.92q0-20-1.69-26.8-2.62-11.49-10.44-16.3t-23.1-4.8a39.36,39.36,0,0,0-24.06,7.81q-10.54,7.8-9.81,21.31-2,8.66-2,31.54V223.1h-15Z" transform="translate(-65.89 -59.78)"/><path class="cls-1" d="M941.87,182l12.45,6.65a65.14,65.14,0,0,1-14.14,19.51,57.08,57.08,0,0,1-18.25,11.24A64.06,64.06,0,0,1,899,223.2q-28.28,0-44.2-18.52T838.9,162.85a61.81,61.81,0,0,1,13.5-39.24q17.1-21.94,45.89-22,29.44,0,47.16,22.47Q958,140,958.11,163.59H854.19q.43,20.26,12.88,33.18a40.91,40.91,0,0,0,30.7,12.93A48.6,48.6,0,0,0,915,206.58a46,46,0,0,0,14.19-8.17Q935,193.34,941.87,182Zm0-31.12q-3-11.93-8.65-19.05a41.34,41.34,0,0,0-15.09-11.5,46.28,46.28,0,0,0-19.73-4.37,42.23,42.23,0,0,0-29.22,11q-8.86,8-13.4,24Z" transform="translate(-65.89 -59.78)"/><circle class="cls-1" cx="132.45" cy="103.29" r="19.53"/></svg>